#!OML:ASF H:\ColoradoDance\Project 1\Capture day 1\Session 8\male.ASF
:FULLY-SPECIFIED
:DEGREES
174
upperback -2.944830 -1.879720 2.236020
rfoot -16.483700 8.253080
lradius 39.789200
lthumb 4.623420 56.142601
rradius 40.877701
lwrist -5.564460
rhand -24.474001 -12.358600
rhumerus -31.441999 -11.643600 -60.748501
lowerneck -4.290700 -7.155030 -2.099910
lhand -21.777700 26.212999
ltibia 30.733101
head 3.295490 -4.725580 1.258290
rwrist 198.809998
lfingers 7.125020
rtoes -29.187300
lowerback 3.721440 -1.556700 1.235500
rfingers 7.125020
lclavicle -0.000000 0.000000
upperneck 6.838770 -9.718560 4.058090
rfemur -43.976700 26.321699 5.268670
thorax -5.100230 -0.923553 1.775070
rclavicle -0.000000 0.000000
rtibia 31.502501
lfoot -22.382799 -9.351370
lhumerus -17.824800 -6.271430 67.316200
rthumb 2.019620 317.670990
root -19.583700 19.507000 -18.742201 -3.264840 69.847000 698.822998
ltoes -4.680690
lfemur -19.578199 -25.629200 0.943026
175
upperback -3.859520 -1.651700 1.693440
rfoot 10.821400 -32.235401
lradius 28.155001
lthumb 8.139740 53.232700
rradius 37.473499
lwrist -14.216300
rhand -28.748501 0.267050
rhumerus -35.286800 -23.267200 -53.053699
lowerneck -4.824220 -3.948930 -0.134159
lhand -18.135300 23.409500
ltibia 24.185600
head 2.283370 -2.622810 0.018135
rwrist 198.938004
lfingers 7.125020
rtoes 22.857201
lowerback 2.076090 -1.388750 2.580770
rfingers 7.125020
lclavicle 0.000000 -0.000000
upperneck 4.569680 -5.295670 0.561353
rfemur -38.267899 18.616800 -3.001530
thorax -5.180180 -0.881229 0.416446
rclavicle 0.000000 -0.000000
rtibia 29.968201
lfoot -19.461800 4.257290
lhumerus -27.687700 0.723722 59.286800
rthumb -2.108770 330.298004
root -19.290100 19.982901 -21.746799 12.740100 26.323200 708.515991
ltoes 7.580770
lfemur -17.651800 -0.806714 -14.807000
176
upperback -4.528570 -0.114284 2.029020
rfoot 25.463499 -28.553900
lradius 27.446600
lthumb 12.205500 51.384602
rradius 37.568699
lwrist -12.823600
rhand -27.343700 1.591450
rhumerus -51.944698 -25.370001 -32.680199
lowerneck -4.813630 1.680320 5.918270
lhand -13.920800 21.760700
ltibia 26.018400
head 2.616090 1.021550 -2.614940
rwrist 198.753998
lfingers 7.125020
rtoes 32.088200
lowerback 0.009498 -0.240201 4.908650
rfingers 7.125020
lclavicle 0.000000 -0.000000
upperneck 5.049970 2.121270 -5.028240
rfemur -11.679700 7.272550 -0.351390
thorax -4.700410 -0.207452 -0.642134
rclavicle 0.000000 -0.000000
rtibia 31.494200
lfoot -23.357100 18.092300
lhumerus -37.875500 3.712050 61.860802
rthumb -0.752049 331.613007
root -18.893400 19.912201 -22.934401 12.257200 0.698067 707.841980
ltoes 16.240499
lfemur -17.627399 7.190640 -19.764099
177
upperback -4.283280 1.403590 1.967670
rfoot 37.277500 -15.552000
lradius 25.040800
lthumb 9.488900 52.957100
rradius 36.622398
lwrist -13.950200
rhand -28.721800 0.515614
rhumerus -56.916100 -30.836000 -30.747000
lowerneck -3.649000 8.010930 12.437100
lhand -16.737200 23.190701
ltibia 30.602501
head 2.380820 5.133870 -4.326250
rwrist 201.158997
lfingers 7.125020
rtoes 34.374699
lowerback 1.129470 0.869014 4.626690
rfingers 7.125020
lclavicle 0.000000 0.000000
upperneck 2.217330 10.418500 -9.151000
rfemur -1.019140 1.438650 6.189540
thorax -5.010920 0.546238 -0.625976
rclavicle 0.000000 0.000000
rtibia 39.269699
lfoot -24.666901 26.146099
lhumerus -43.146900 3.236870 68.436401
rthumb -2.083050 330.545990
root -18.638100 19.831800 -24.159000 15.474700 -23.037300 706.682983
ltoes 19.489500
lfemur -26.257200 20.312700 -23.988400
178
upperback -3.632780 2.507650 0.414887
rfoot 17.801399 13.291400
lradius 25.881599
lthumb 11.881000 53.934299
rradius 40.417000
lwrist -10.843200
rhand -32.406399 -2.639460
rhumerus -48.805599 -28.269699 -54.776600
lowerneck -0.916863 11.782000 14.562200
lhand -14.257300 24.291401
ltibia 43.719799
head 1.445060 7.728130 -4.792270
rwrist 201.104996
lfingers 7.125020
rtoes 13.357100
lowerback 2.224610 1.752700 3.380860
rfingers 7.125020
lclavicle 0.000000 -0.000000
upperneck -2.069610 15.586800 -10.059200
rfemur 2.170900 2.429780 14.235400
thorax -4.878860 1.122100 -1.620820
rclavicle 0.000000 -0.000000
rtibia 37.059601
lfoot -27.554501 31.400700
lhumerus -41.645302 -1.609570 70.853897
rthumb -5.641120 327.455994
root -17.998600 19.242201 -25.897200 19.897699 -40.228699 705.544006
ltoes 20.301100
lfemur -42.845402 25.472500 -27.549200
179
upperback -2.177930 1.422230 -1.349050
rfoot -25.506500 5.847300
lradius 45.160099
lthumb 14.704500 64.300400
rradius 44.179199
lwrist -5.066980
rhand -31.261600 -2.269190
rhumerus -40.820801 -22.207500 -72.092102
lowerneck -1.831220 10.541200 13.844100
lhand -11.328000 34.841900
ltibia 43.559502
head 2.243560 6.927640 -5.686380
rwrist 198.425995
lfingers 7.125020
rtoes -17.607500
lowerback 2.937400 1.030480 2.059530
rfingers 7.125020
lclavicle 0.000000 0.000000
upperneck 0.001055 14.031700 -13.415800
rfemur -4.489740 14.222700 24.149300
thorax -3.807910 0.632734 -2.634510
rclavicle 0.000000 0.000000
rtibia 39.915699
lfoot -10.239400 25.224501
lhumerus -41.920700 -7.435020 72.639503
rthumb -4.535730 327.799011
root -16.878099 18.733299 -28.655100 14.134100 -31.573601 715.255005
ltoes 16.781799
lfemur -51.503899 13.836400 -32.782700
180
upperback -2.952420 1.638360 1.014510
rfoot -35.072800 -15.724800
lradius 64.133202
lthumb 4.563440 48.769501
rradius 42.642899
lwrist -7.094010
rhand -30.296700 0.589200
rhumerus -49.195801 -19.519100 -67.255997
lowerneck 0.504534 11.084900 14.590100
lhand -21.839800 18.838699
ltibia 64.024002
head 3.154640 7.703080 -6.556340
rwrist 195.671005
lfingers 7.125020
rtoes -10.865000
lowerback 3.778740 0.886008 6.602940
rfingers 7.125020
lclavicle -0.000000 0.000000
upperneck 2.749480 15.473000 -16.113899
rfemur -23.483801 -7.704900 31.740200
thorax -5.047990 0.596875 -2.775120
rclavicle -0.000000 0.000000
rtibia 50.240501
lfoot -6.461090 3.545570
lhumerus -40.112301 -21.975700 86.879799
rthumb -3.603970 330.640015
root -15.741100 18.547400 -32.046902 14.356000 5.269460 717.706970
ltoes -2.304210
lfemur -61.641701 12.940100 -33.859299
181
upperback -2.932290 2.277630 0.358726
rfoot -35.087502 -26.066000
lradius 55.034100
lthumb 16.874100 76.893402
rradius 32.786201
lwrist -3.847850
rhand -29.896601 -13.540000
rhumerus -58.206402 -22.559000 -64.706001
lowerneck -0.694544 9.564630 13.725100
lhand -9.075120 47.606499
ltibia 59.808399
head 3.034550 6.533980 -5.310160
rwrist 210.621994
lfingers 7.125020
rtoes -7.570950
lowerback 3.723940 1.428850 5.643950
rfingers 7.125020
lclavicle -0.000000 -0.000000
upperneck 4.081270 13.124200 -12.082600
rfemur -25.229799 -23.062300 33.052700
thorax -4.936750 0.942813 -2.967490
rclavicle -0.000000 -0.000000
rtibia 49.375900
lfoot -17.100901 18.739300
lhumerus -41.268200 -12.806900 78.628700
rthumb -3.217560 316.503998
root -14.682200 18.757099 -33.540401 9.459550 34.453999 717.060974
ltoes 6.656490
lfemur -42.110298 11.874300 -4.404200
182
upperback -2.920580 3.960570 -1.044280
rfoot -35.121601 -37.310600
lradius 29.339500
lthumb -4.011080 73.203499
rradius 34.101398
lwrist -7.390540
rhand -31.253401 1.311530
rhumerus -62.466499 -18.195299 -59.155602
lowerneck -1.509530 4.790160 11.271500
lhand -30.718300 43.261501
ltibia 32.715199
head 2.669530 3.306130 -4.542870
rwrist 207.876007
lfingers 7.125020
rtoes -3.304360
lowerback 2.428170 2.827750 4.602990
rfingers 7.125020
lclavicle -0.000000 0.000000
upperneck 5.833600 6.627320 -9.659390
rfemur -13.030500 -25.333500 21.683701
thorax -3.998840 1.821530 -3.877140
rclavicle -0.000000 0.000000
rtibia 40.164200
lfoot -7.811230 22.055799
lhumerus -41.399899 10.130600 56.584099
rthumb -4.527850 331.380005
root -12.211700 19.353600 -34.630600 7.587580 55.252899 720.122009
ltoes 2.000660
lfemur -25.465401 4.467980 -5.627180
183
upperback -2.776540 2.000140 -1.480700
rfoot -4.170140 -23.358801
lradius 18.681299
lthumb 2.842060 61.868401
rradius 39.139099
lwrist -19.904499
rhand -34.112202 -3.871240
rhumerus -60.232700 -17.825199 -48.737900
lowerneck -5.821780 0.983826 8.183650
lhand -23.622400 31.907600
ltibia 23.216999
head 3.613060 0.570731 -3.684380
rwrist 204.268005
lfingers 7.125020
rtoes -5.310750
lowerback 1.226860 1.477530 1.606580
rfingers 7.125020
lclavicle 0.000000 0.000000
upperneck 8.606760 1.324240 -7.879050
rfemur -8.532550 -6.388130 9.981750
thorax -3.435950 0.942287 -2.508010
rclavicle 0.000000 0.000000
rtibia 55.481300
lfoot -14.015600 19.838900
lhumerus -43.661499 14.480800 50.025398
rthumb -7.287870 326.273987
root -9.339610 19.840401 -36.023300 21.378599 75.291100 735.846985
ltoes -12.936100
lfemur -17.297400 -10.132400 -17.999599
184
upperback -2.577490 -0.146834 -0.095800
rfoot -6.407320 -15.300800
lradius 27.009001
lthumb 4.338680 55.492901
rradius 47.233299
lwrist -11.250500
rhand -25.843901 -22.125999
rhumerus -53.000198 -16.773100 -57.574902
lowerneck -5.345690 -2.346740 4.449380
lhand -22.072599 25.557400
ltibia 26.674900
head 2.783440 -1.622570 -2.470670
rwrist 195.425003
lfingers 7.125020
rtoes -8.500520
lowerback 2.673740 -0.087569 -0.881041
rfingers 7.125020
lclavicle -0.000000 0.000000
upperneck 6.188710 -3.156700 -4.767680
rfemur -31.005199 -4.617340 16.397800
thorax -4.152240 -0.042069 0.403831
rclavicle -0.000000 0.000000
rtibia 63.764500
lfoot -14.538400 9.156790
lhumerus -40.803799 3.048440 69.003899
rthumb 0.696477 307.894989
root -7.157790 19.840599 -36.459999 88.745598 87.827400 801.879028
ltoes -6.449700
lfemur -15.492900 -9.640440 -19.440901
185
upperback -2.337420 -1.056200 -1.257180
rfoot -21.234501 -25.088301
lradius 30.920500
lthumb 6.247340 54.824501
rradius 47.763401
lwrist -9.546300
rhand -29.643600 -8.251220
rhumerus -51.160198 -16.170200 -66.538002
lowerneck -5.834420 -3.402270 3.934930
lhand -20.095800 24.936600
ltibia 21.114000
head 3.303190 -2.299030 -2.390150
rwrist 196.649002
lfingers 7.125020
rtoes -10.653700
lowerback 1.363330 -0.715656 -3.263360
rfingers 7.125020
lclavicle 0.000000 -0.000000
upperneck 7.611880 -4.521630 -4.503810
rfemur -39.955700 17.596001 1.867020
thorax -3.133270 -0.451449 0.576916
rclavicle 0.000000 -0.000000
rtibia 28.446501
lfoot -19.721100 5.998650
lhumerus -39.568401 -1.153840 84.327797
rthumb -2.973280 321.790009
root -4.262640 19.527201 -36.374100 143.233994 83.516899 856.500977
ltoes -6.171270
lfemur -3.050170 -9.912200 -22.665899
